<mxfile host="app.diagrams.net" agent="Mozilla/5.0 (Windows NT 10.0; Win64; x64) AppleWebKit/537.36 (KHTML, like Gecko) Chrome/131.0.0.0 Safari/537.36" version="26.0.6">
  <diagram name="Page-1" id="gfi5gyrzUQEX2aUyPdNA">
    <mxGraphModel dx="1027" dy="906" grid="1" gridSize="10" guides="1" tooltips="1" connect="1" arrows="1" fold="1" page="1" pageScale="1" pageWidth="850" pageHeight="1100" math="0" shadow="0">
      <root>
        <mxCell id="0" />
        <mxCell id="1" parent="0" />
        <mxCell id="HR7dv63Kl1cZuGq7-MSz-1" value="Client" style="shape=umlActor;verticalLabelPosition=bottom;verticalAlign=top;html=1;outlineConnect=0;" parent="1" vertex="1">
          <mxGeometry x="40" y="380" width="30" height="50" as="geometry" />
        </mxCell>
        <mxCell id="vvhM5-vF624EOgHBPcxO-3" value="" style="endArrow=classic;html=1;rounded=0;startSize=6;strokeWidth=2;" edge="1" parent="1">
          <mxGeometry width="50" height="50" relative="1" as="geometry">
            <mxPoint x="90" y="410" as="sourcePoint" />
            <mxPoint x="160" y="410" as="targetPoint" />
          </mxGeometry>
        </mxCell>
        <mxCell id="vvhM5-vF624EOgHBPcxO-4" value="" style="shape=cube;whiteSpace=wrap;html=1;boundedLbl=1;backgroundOutline=1;darkOpacity=0.05;darkOpacity2=0.1;direction=east;size=20;" vertex="1" parent="1">
          <mxGeometry x="170" y="355" width="70" height="100" as="geometry" />
        </mxCell>
        <mxCell id="vvhM5-vF624EOgHBPcxO-5" value="Server&lt;div&gt;(Apache)&lt;/div&gt;" style="text;html=1;align=center;verticalAlign=middle;whiteSpace=wrap;rounded=0;" vertex="1" parent="1">
          <mxGeometry x="190" y="390" width="50" height="30" as="geometry" />
        </mxCell>
        <mxCell id="vvhM5-vF624EOgHBPcxO-9" value="" style="endArrow=classic;startArrow=classic;html=1;rounded=0;entryX=0.831;entryY=1.04;entryDx=0;entryDy=0;entryPerimeter=0;" edge="1" parent="1" target="vvhM5-vF624EOgHBPcxO-12">
          <mxGeometry width="50" height="50" relative="1" as="geometry">
            <mxPoint x="250" y="404.58" as="sourcePoint" />
            <mxPoint x="350" y="405" as="targetPoint" />
          </mxGeometry>
        </mxCell>
        <mxCell id="vvhM5-vF624EOgHBPcxO-11" value="" style="endArrow=classic;startArrow=classic;html=1;rounded=0;" edge="1" parent="1">
          <mxGeometry width="50" height="50" relative="1" as="geometry">
            <mxPoint x="250" y="420" as="sourcePoint" />
            <mxPoint x="370" y="470" as="targetPoint" />
          </mxGeometry>
        </mxCell>
        <mxCell id="vvhM5-vF624EOgHBPcxO-12" value="" style="shape=cube;whiteSpace=wrap;html=1;boundedLbl=1;backgroundOutline=1;darkOpacity=0.05;darkOpacity2=0.1;direction=south;size=20;" vertex="1" parent="1">
          <mxGeometry x="360" y="330" width="70" height="90" as="geometry" />
        </mxCell>
        <mxCell id="vvhM5-vF624EOgHBPcxO-13" value="Apache&lt;div&gt;Tomcat&lt;/div&gt;" style="text;html=1;align=center;verticalAlign=middle;whiteSpace=wrap;rounded=0;" vertex="1" parent="1">
          <mxGeometry x="360" y="370" width="50" height="30" as="geometry" />
        </mxCell>
        <mxCell id="vvhM5-vF624EOgHBPcxO-14" value="" style="endArrow=none;dashed=1;html=1;dashPattern=1 3;strokeWidth=2;rounded=0;" edge="1" parent="1">
          <mxGeometry width="50" height="50" relative="1" as="geometry">
            <mxPoint x="380" y="510" as="sourcePoint" />
            <mxPoint x="379.58" y="430" as="targetPoint" />
          </mxGeometry>
        </mxCell>
        <mxCell id="vvhM5-vF624EOgHBPcxO-15" value="HTTP(SERVER)" style="text;html=1;align=center;verticalAlign=middle;whiteSpace=wrap;rounded=0;" vertex="1" parent="1">
          <mxGeometry x="165" y="460" width="80" height="20" as="geometry" />
        </mxCell>
        <mxCell id="vvhM5-vF624EOgHBPcxO-16" value="AJP Communication" style="text;html=1;align=center;verticalAlign=middle;whiteSpace=wrap;rounded=0;" vertex="1" parent="1">
          <mxGeometry x="240" y="380" width="120" height="20" as="geometry" />
        </mxCell>
        <mxCell id="vvhM5-vF624EOgHBPcxO-19" value="port 8100" style="text;html=1;align=center;verticalAlign=middle;whiteSpace=wrap;rounded=0;" vertex="1" parent="1">
          <mxGeometry x="165" y="330" width="60" height="30" as="geometry" />
        </mxCell>
        <mxCell id="vvhM5-vF624EOgHBPcxO-21" value="port 8200" style="text;html=1;align=center;verticalAlign=middle;whiteSpace=wrap;rounded=0;" vertex="1" parent="1">
          <mxGeometry x="370" y="310" width="60" height="30" as="geometry" />
        </mxCell>
        <mxCell id="vvhM5-vF624EOgHBPcxO-22" value="Request" style="text;html=1;align=center;verticalAlign=middle;whiteSpace=wrap;rounded=0;" vertex="1" parent="1">
          <mxGeometry x="80" y="380" width="70" height="30" as="geometry" />
        </mxCell>
        <mxCell id="vvhM5-vF624EOgHBPcxO-23" value="mod_jk Connector" style="ellipse;whiteSpace=wrap;html=1;" vertex="1" parent="1">
          <mxGeometry x="250" y="470" width="110" height="30" as="geometry" />
        </mxCell>
        <mxCell id="vvhM5-vF624EOgHBPcxO-24" value="(Protocol)" style="text;html=1;align=center;verticalAlign=middle;whiteSpace=wrap;rounded=0;" vertex="1" parent="1">
          <mxGeometry x="275" y="500" width="60" height="30" as="geometry" />
        </mxCell>
        <mxCell id="vvhM5-vF624EOgHBPcxO-25" value="" style="rounded=0;whiteSpace=wrap;html=1;dashed=1;opacity=20;strokeWidth=2;fillColor=#FFFFFF;" vertex="1" parent="1">
          <mxGeometry x="152.5" y="310" width="295" height="220" as="geometry" />
        </mxCell>
        <mxCell id="vvhM5-vF624EOgHBPcxO-26" value="Application&lt;div&gt;(Code)&lt;/div&gt;" style="rounded=0;whiteSpace=wrap;html=1;" vertex="1" parent="1">
          <mxGeometry x="268.75" y="850" width="71.25" height="40" as="geometry" />
        </mxCell>
        <mxCell id="vvhM5-vF624EOgHBPcxO-27" value="Gitlab" style="shape=cube;whiteSpace=wrap;html=1;boundedLbl=1;backgroundOutline=1;darkOpacity=0.05;darkOpacity2=0.1;direction=south;" vertex="1" parent="1">
          <mxGeometry x="40" y="750" width="60" height="90" as="geometry" />
        </mxCell>
        <mxCell id="vvhM5-vF624EOgHBPcxO-28" value="" style="endArrow=classic;html=1;rounded=0;" edge="1" parent="1">
          <mxGeometry width="50" height="50" relative="1" as="geometry">
            <mxPoint x="110" y="750" as="sourcePoint" />
            <mxPoint x="260" y="640" as="targetPoint" />
          </mxGeometry>
        </mxCell>
        <mxCell id="vvhM5-vF624EOgHBPcxO-29" value="vnbe-shared&lt;div&gt;(branch)&lt;/div&gt;" style="shape=cube;whiteSpace=wrap;html=1;boundedLbl=1;backgroundOutline=1;darkOpacity=0.05;darkOpacity2=0.1;direction=south;size=18;" vertex="1" parent="1">
          <mxGeometry x="268.75" y="590" width="72.5" height="90" as="geometry" />
        </mxCell>
        <mxCell id="vvhM5-vF624EOgHBPcxO-30" value="" style="endArrow=classic;html=1;rounded=0;" edge="1" parent="1">
          <mxGeometry width="50" height="50" relative="1" as="geometry">
            <mxPoint x="110" y="790" as="sourcePoint" />
            <mxPoint x="260" y="790" as="targetPoint" />
          </mxGeometry>
        </mxCell>
        <mxCell id="vvhM5-vF624EOgHBPcxO-31" value="vnbe-biz&lt;div&gt;(branch)&lt;/div&gt;" style="shape=cube;whiteSpace=wrap;html=1;boundedLbl=1;backgroundOutline=1;darkOpacity=0.05;darkOpacity2=0.1;direction=south;size=18;" vertex="1" parent="1">
          <mxGeometry x="268.75" y="750" width="72.5" height="90" as="geometry" />
        </mxCell>
        <mxCell id="vvhM5-vF624EOgHBPcxO-33" value="Jenkins&lt;div&gt;(Server)&lt;/div&gt;" style="shape=cube;whiteSpace=wrap;html=1;boundedLbl=1;backgroundOutline=1;darkOpacity=0.05;darkOpacity2=0.1;direction=south;" vertex="1" parent="1">
          <mxGeometry x="760" y="750" width="80" height="90" as="geometry" />
        </mxCell>
        <mxCell id="vvhM5-vF624EOgHBPcxO-34" value="Application&lt;div&gt;(Java code)&lt;/div&gt;" style="rounded=0;whiteSpace=wrap;html=1;" vertex="1" parent="1">
          <mxGeometry x="730" y="375" width="110" height="40" as="geometry" />
        </mxCell>
        <mxCell id="vvhM5-vF624EOgHBPcxO-35" value="" style="endArrow=classic;html=1;rounded=0;" edge="1" parent="1">
          <mxGeometry relative="1" as="geometry">
            <mxPoint x="720" y="400" as="sourcePoint" />
            <mxPoint x="620" y="400" as="targetPoint" />
          </mxGeometry>
        </mxCell>
        <mxCell id="vvhM5-vF624EOgHBPcxO-36" value="Maven" style="edgeLabel;resizable=0;html=1;;align=center;verticalAlign=middle;" connectable="0" vertex="1" parent="vvhM5-vF624EOgHBPcxO-35">
          <mxGeometry relative="1" as="geometry" />
        </mxCell>
        <mxCell id="vvhM5-vF624EOgHBPcxO-40" value="file war&lt;div&gt;(*.war)&lt;/div&gt;" style="rounded=0;whiteSpace=wrap;html=1;" vertex="1" parent="1">
          <mxGeometry x="550" y="375" width="60" height="40" as="geometry" />
        </mxCell>
        <mxCell id="vvhM5-vF624EOgHBPcxO-41" value="Server Jenkins&lt;div&gt;(/engn001/jenkins&lt;/div&gt;&lt;div&gt;/jenkins_home/...)&lt;/div&gt;" style="text;html=1;align=center;verticalAlign=middle;whiteSpace=wrap;rounded=0;" vertex="1" parent="1">
          <mxGeometry x="720" y="320" width="120" height="50" as="geometry" />
        </mxCell>
        <mxCell id="vvhM5-vF624EOgHBPcxO-43" value="Server Web/Was" style="text;html=1;align=center;verticalAlign=middle;whiteSpace=wrap;rounded=0;" vertex="1" parent="1">
          <mxGeometry x="147.5" y="280" width="97.5" height="30" as="geometry" />
        </mxCell>
        <mxCell id="vvhM5-vF624EOgHBPcxO-44" value="(.../ target)" style="text;html=1;align=center;verticalAlign=middle;whiteSpace=wrap;rounded=0;" vertex="1" parent="1">
          <mxGeometry x="550" y="345" width="60" height="30" as="geometry" />
        </mxCell>
        <mxCell id="vvhM5-vF624EOgHBPcxO-46" value="copy to&amp;nbsp;&lt;div&gt;Web/Was Server&lt;/div&gt;" style="text;html=1;align=center;verticalAlign=middle;whiteSpace=wrap;rounded=0;strokeWidth=1;" vertex="1" parent="1">
          <mxGeometry x="447.5" y="345" width="100" height="30" as="geometry" />
        </mxCell>
        <mxCell id="vvhM5-vF624EOgHBPcxO-47" value="(sorc001/vnbe)" style="text;html=1;align=center;verticalAlign=middle;whiteSpace=wrap;rounded=0;" vertex="1" parent="1">
          <mxGeometry x="451.25" y="320" width="92.5" height="30" as="geometry" />
        </mxCell>
        <mxCell id="vvhM5-vF624EOgHBPcxO-48" value="" style="endArrow=classic;startArrow=classic;html=1;rounded=0;" edge="1" parent="1">
          <mxGeometry width="50" height="50" relative="1" as="geometry">
            <mxPoint x="450" y="380" as="sourcePoint" />
            <mxPoint x="540" y="390" as="targetPoint" />
          </mxGeometry>
        </mxCell>
        <mxCell id="vvhM5-vF624EOgHBPcxO-49" value="Port 8080" style="text;html=1;align=center;verticalAlign=middle;whiteSpace=wrap;rounded=0;" vertex="1" parent="1">
          <mxGeometry x="770" y="730" width="70" height="20" as="geometry" />
        </mxCell>
        <mxCell id="vvhM5-vF624EOgHBPcxO-50" value="" style="endArrow=none;html=1;rounded=0;" edge="1" parent="1">
          <mxGeometry width="50" height="50" relative="1" as="geometry">
            <mxPoint x="60" y="280" as="sourcePoint" />
            <mxPoint x="790" y="280" as="targetPoint" />
            <Array as="points">
              <mxPoint x="240" y="270" />
              <mxPoint x="430" y="260" />
              <mxPoint x="610" y="270" />
            </Array>
          </mxGeometry>
        </mxCell>
        <mxCell id="vvhM5-vF624EOgHBPcxO-51" value="&lt;font style=&quot;font-size: 18px;&quot;&gt;CI&lt;/font&gt;" style="text;html=1;align=center;verticalAlign=middle;whiteSpace=wrap;rounded=0;" vertex="1" parent="1">
          <mxGeometry x="400" y="230" width="60" height="30" as="geometry" />
        </mxCell>
        <mxCell id="vvhM5-vF624EOgHBPcxO-57" value="Jenkinsfile:&lt;div&gt;&lt;pre lang=&quot;groovy&quot; class=&quot;code highlight&quot;&gt;&lt;span class=&quot;hljs-meta&quot;&gt;@Library&lt;/span&gt;&lt;span class=&quot;&quot;&gt;(&lt;/span&gt;&lt;span class=&quot;hljs-string&quot;&gt;&#39;shared_library@develop&#39;&lt;/span&gt;&lt;span class=&quot;&quot;&gt;) _&lt;/span&gt;&lt;br&gt;&lt;span class=&quot;&quot;&gt;mainPipeline(&lt;/span&gt;&lt;span class=&quot;hljs-string&quot;&gt;&#39;vnbe&#39;)&lt;/span&gt;&lt;/pre&gt;&lt;/div&gt;" style="rounded=0;whiteSpace=wrap;html=1;" vertex="1" parent="1">
          <mxGeometry x="176.25" y="920" width="247.5" height="70" as="geometry" />
        </mxCell>
        <mxCell id="vvhM5-vF624EOgHBPcxO-58" value="" style="endArrow=classic;html=1;rounded=0;" edge="1" parent="1">
          <mxGeometry width="50" height="50" relative="1" as="geometry">
            <mxPoint x="299.58" y="890" as="sourcePoint" />
            <mxPoint x="300" y="920" as="targetPoint" />
          </mxGeometry>
        </mxCell>
        <mxCell id="vvhM5-vF624EOgHBPcxO-59" value="(&#39;shared_library&#39; &amp;lt;--- &#39;vnbe-shared&#39; branch)&lt;div&gt;(Global Trusted Pipiline Plugin)&lt;/div&gt;" style="text;html=1;align=center;verticalAlign=middle;whiteSpace=wrap;rounded=0;" vertex="1" parent="1">
          <mxGeometry x="180" y="1000" width="240" height="30" as="geometry" />
        </mxCell>
      </root>
    </mxGraphModel>
  </diagram>
</mxfile>
